<svg width="18" height="17" viewBox="0 0 18 17" fill="none" xmlns="http://www.w3.org/2000/svg">
<path d="M0.5 0.5H2.05848C2.7542 0.5 3.10206 0.5 3.36395 0.688758C3.62584 0.877516 3.73584 1.20753 3.95585 1.86754L4.5 3.5" stroke="white" stroke-linecap="round"/>
<path d="M14.5 13.5H5.05091C4.90471 13.5 4.83162 13.5 4.77616 13.4938C4.18857 13.428 3.78605 12.8695 3.90945 12.2913C3.92109 12.2367 3.94421 12.1674 3.99044 12.0287V12.0287C4.04177 11.8747 4.06743 11.7977 4.09579 11.7298C4.38607 11.0342 5.04277 10.5608 5.79448 10.5054C5.8679 10.5 5.94906 10.5 6.11137 10.5H11.5" stroke="white" stroke-linecap="round" stroke-linejoin="round"/>
<path d="M11.1787 10.5H8.13758C6.85836 10.5 6.21875 10.5 5.71781 10.1697C5.21687 9.83936 4.96492 9.25147 4.461 8.07568L4.29218 7.68176C3.48269 5.79294 3.07794 4.84853 3.52255 4.17426C3.96715 3.5 4.99464 3.5 7.04962 3.5H12.3305C14.6295 3.5 15.779 3.5 16.2126 4.24711C16.6462 4.99422 16.0758 5.99229 14.9352 7.98842L14.6517 8.48456C14.0897 9.46795 13.8088 9.95964 13.3432 10.2298C12.8776 10.5 12.3113 10.5 11.1787 10.5Z" stroke="white" stroke-linecap="round"/>
<circle cx="14" cy="16" r="1" fill="white"/>
<circle cx="6" cy="16" r="1" fill="white"/>
</svg>
