<svg width="262" height="119" viewBox="0 0 262 119" fill="none" xmlns="http://www.w3.org/2000/svg">
<g clip-path="url(#clip0_1_2)">
<path d="M31.856 71.112H34.032C35.7387 71.112 38.2347 71.368 41.52 71.88C44.8053 72.392 47.0667 72.648 48.304 72.648C49.5413 72.648 50.5013 72.6053 51.184 72.52C51.7813 67.656 52.5707 63.048 53.552 58.696C54.5333 54.344 55.28 51.08 55.792 48.904C56.304 46.728 56.7307 45 57.072 43.72C57.4133 42.3973 57.584 41.672 57.584 41.544C57.584 41.3733 57.5413 41.288 57.456 41.288C57.1147 41.288 56.5173 41.8853 55.664 43.08L31.856 71.112ZM29.808 73.416C21.616 82.76 15.856 88.8187 12.528 91.592C11.2907 92.5307 9.456 93.128 7.024 93.384C6.896 93.384 6.42667 93.4693 5.616 93.64C4.76267 93.8107 4.08 93.896 3.568 93.896C3.056 93.896 2.8 93.7253 2.8 93.384C2.8 92.9573 3.14133 92.6587 3.824 92.488C5.44533 91.9333 6.81067 91.1653 7.92 90.184C14.3627 84.552 21.0827 78.216 28.08 71.176C35.0773 64.0933 43.632 54.6427 53.744 42.824C54.4267 42.056 54.9813 41.416 55.408 40.904C55.8773 40.3493 56.3467 39.8587 56.816 39.432C57.2853 39.0053 57.6267 38.7067 57.84 38.536C58.0533 38.3227 58.3733 38.088 58.8 37.832C59.2693 37.576 59.568 37.4053 59.696 37.32C60.2507 37.064 60.8053 36.8507 61.36 36.68C61.9573 36.4667 62.6187 36.1893 63.344 35.848C64.112 35.464 64.6453 35.272 64.944 35.272C65.2427 35.272 65.392 35.4427 65.392 35.784V35.912C65.392 36.3813 65.1573 37.1493 64.688 38.216C64.2187 39.24 63.984 39.7947 63.984 39.88C62.7893 43.1227 61.4453 47.8587 59.952 54.088C58.5013 60.3173 57.4133 66.2053 56.688 71.752C59.5893 71.0267 62.2347 69.704 64.624 67.784C65.392 67.1867 65.8613 66.888 66.032 66.888C66.2027 66.888 66.288 67.016 66.288 67.272C66.288 67.4853 65.8187 67.976 64.88 68.744C63.9413 69.4693 62.6613 70.2587 61.04 71.112C59.4613 71.9653 57.968 72.5627 56.56 72.904C56.1333 76.616 55.92 79.5173 55.92 81.608C55.92 88.0933 57.2853 91.336 60.016 91.336C61.5947 91.336 63.6213 90.5893 66.096 89.096C68.6133 87.56 71.1307 85.6827 73.648 83.464C76.208 81.2453 78.1493 79.1333 79.472 77.128C79.6427 76.872 79.8133 76.744 79.984 76.744C80.1547 76.744 80.24 76.808 80.24 76.936C80.24 77.064 80.1973 77.2133 80.112 77.384C77.808 80.456 75.504 82.9947 73.2 85C70.9387 87.0053 68.2293 88.9253 65.072 90.76C61.9573 92.5947 59.0987 93.512 56.496 93.512C53.8933 93.512 52.208 92.7227 51.44 91.144C50.672 89.5227 50.288 87.0267 50.288 83.656C50.288 80.2427 50.5013 77.0427 50.928 74.056C47.088 74.4827 44.4 74.696 42.864 74.696C41.3707 74.696 39.216 74.4613 36.4 73.992C33.584 73.5227 31.8347 73.288 31.152 73.288C30.512 73.288 30.064 73.3307 29.808 73.416ZM83.726 64.328C84.9633 64.328 85.902 64.6693 86.542 65.352C87.2247 66.0347 87.566 66.7387 87.566 67.464C87.566 68.1893 87.3953 68.9787 87.054 69.832C86.7127 70.6853 86.35 71.4747 85.966 72.2C85.582 72.9253 85.1553 73.6933 84.686 74.504C84.2593 75.272 84.0247 75.72 83.982 75.848C86.542 72.904 89.6993 70.088 93.454 67.4C96.142 65.5227 99.6407 63.7307 103.95 62.024C104.462 61.8533 104.782 61.768 104.91 61.768C105.038 61.768 105.102 61.832 105.102 61.96C105.102 62.088 105.059 62.1947 104.974 62.28C104.931 62.3227 104.867 62.3653 104.782 62.408C104.697 62.4507 104.441 62.5787 104.014 62.792C103.63 63.0053 102.755 63.7093 101.39 64.904C100.025 66.056 99.342 67.08 99.342 67.976C99.342 68.872 99.726 69.32 100.494 69.32C101.475 69.32 102.969 68.5947 104.974 67.144C105.358 66.888 105.593 66.76 105.678 66.76C105.806 66.76 105.87 66.8453 105.87 67.016C105.87 67.1867 105.742 67.3573 105.486 67.528C103.737 68.808 102.35 69.6827 101.326 70.152C100.345 70.6213 99.3633 70.856 98.382 70.856C97.4007 70.856 96.6113 70.6853 96.014 70.344C95.4167 70.0027 95.118 69.512 95.118 68.872C95.118 68.1893 95.374 67.528 95.886 66.888C93.9233 67.9973 91.6193 69.832 88.974 72.392C86.3287 74.9093 83.6833 77.9387 81.038 81.48C77.1127 88.7333 74.894 92.6587 74.382 93.256C73.87 93.8533 73.486 94.152 73.23 94.152C73.0167 94.152 72.846 94.088 72.718 93.96C72.59 93.8747 72.4193 93.6613 72.206 93.32C72.0353 92.9787 71.7793 92.5733 71.438 92.104C71.0967 91.592 70.926 91.1867 70.926 90.888C70.926 90.5467 71.2247 89.928 71.822 89.032C72.4193 88.0933 73.102 87.1973 73.87 86.344C74.6807 85.448 75.3633 84.6373 75.918 83.912C79.4167 77.3413 81.55 73.2667 82.318 71.688C83.086 70.0667 83.47 68.8933 83.47 68.168C83.47 67.4 83.278 66.824 82.894 66.44C82.5527 66.056 81.9553 65.864 81.102 65.864C80.2487 65.864 78.99 66.4187 77.326 67.528C76.942 67.784 76.686 67.912 76.558 67.912C76.4727 67.912 76.43 67.8267 76.43 67.656C76.43 67.4853 76.558 67.3147 76.814 67.144C79.5447 65.2667 81.8487 64.328 83.726 64.328ZM125.226 51.528C128.724 48.6267 131.775 46.0027 134.378 43.656C137.023 41.2667 139.818 38.472 142.762 35.272C145.748 32.072 148.202 29.064 150.122 26.248C152.042 23.3893 153.642 20.296 154.922 16.968C156.202 13.5973 156.842 10.3547 156.842 7.24C156.842 6.51466 156.692 5.91733 156.394 5.448C156.095 4.93599 155.69 4.67999 155.178 4.67999C153.258 4.67999 150.399 7.43199 146.602 12.936C142.804 18.3973 138.794 25.2027 134.569 33.352L125.226 51.528ZM117.93 58.568C109.226 64.84 104.852 67.9547 104.81 67.912C104.682 67.912 104.618 67.8267 104.618 67.656C104.618 67.4853 104.746 67.3147 105.002 67.144C112.724 61.5547 117.332 58.1413 118.826 56.904L129.962 35.784C130.346 35.0587 131.178 33.4587 132.458 30.984C133.738 28.5093 134.634 26.8027 135.146 25.864C135.7 24.9253 136.554 23.4107 137.706 21.32C138.9 19.2293 139.924 17.6293 140.778 16.52C141.631 15.368 142.676 14.0027 143.914 12.424C146.132 9.608 148.778 7.112 151.85 4.936C154.794 2.71733 157.439 1.60799 159.786 1.60799C160.554 1.60799 161.108 1.92799 161.45 2.56799C161.791 3.20799 161.962 3.82666 161.962 4.424C161.962 11.5067 158.783 18.9947 152.426 26.888C150.292 29.5333 148.266 31.88 146.346 33.928C144.468 35.976 142.079 38.3013 139.178 40.904C135.594 44.1467 130.602 48.3707 124.202 53.576L115.114 71.88C116.906 70.088 118.89 68.36 121.066 66.696C123.284 65.032 124.991 63.8373 126.186 63.112C129.087 61.3627 131.583 60.488 133.674 60.488C135.039 60.488 136.148 60.9787 137.002 61.96C137.855 62.9413 138.282 64.2853 138.282 65.992C138.282 67.656 137.556 69.896 136.106 72.712C134.655 75.4853 133.204 78.3653 131.754 81.352C130.303 84.3387 129.578 86.9413 129.578 89.16C129.578 90.6107 130.218 91.336 131.498 91.336C132.906 91.336 134.89 90.568 137.45 89.032C140.052 87.4533 142.591 85.576 145.066 83.4C147.583 81.224 149.503 79.1333 150.826 77.128C150.996 76.872 151.167 76.744 151.338 76.744C151.508 76.744 151.594 76.808 151.594 76.936C151.594 77.064 151.551 77.2133 151.466 77.384C149.162 80.456 146.858 82.9947 144.554 85C142.292 87.0053 139.583 88.9253 136.426 90.76C133.311 92.5947 130.73 93.512 128.682 93.512C125.78 93.512 124.33 91.9333 124.33 88.776C124.33 86.728 125.119 84.1253 126.698 80.968C128.276 77.8107 129.855 74.824 131.434 72.008C133.012 69.192 133.802 67.2933 133.802 66.312C133.802 65.3307 133.546 64.5413 133.034 63.944C132.522 63.3467 131.839 63.048 130.986 63.048C128.724 63.048 125.652 64.7547 121.77 68.168C117.887 71.5387 115.199 74.3547 113.706 76.616C108.97 83.656 106.239 88.9893 105.514 92.616C105.428 92.9573 105.002 93.128 104.234 93.128C103.466 93.128 102.826 93.192 102.314 93.32C101.802 93.448 101.503 93.512 101.418 93.512C100.65 93.512 100.266 93.2133 100.266 92.616C100.266 92.1893 101.183 90.1627 103.018 86.536C104.852 82.9093 106.495 79.7733 107.946 77.128C113.108 67.272 116.436 61.0853 117.93 58.568ZM168.613 67.4L168.229 67.272C168.229 68.168 168.57 69.0213 169.253 69.832C169.978 70.6 170.831 71.112 171.812 71.368C171.898 70.8133 171.941 70.1093 171.941 69.256C171.941 69.0427 171.941 68.808 171.941 68.552C171.941 67.3573 171.578 66.0987 170.853 64.776C170.127 63.4533 169.551 62.792 169.125 62.792C168.527 62.792 168.229 63.6453 168.229 65.352C168.485 65.4373 168.741 65.608 168.997 65.864C169.253 66.12 169.381 66.3547 169.381 66.568C169.381 66.7813 169.274 66.9733 169.061 67.144C168.847 67.3147 168.698 67.4 168.613 67.4ZM171.557 72.52C169.85 72.4347 168.314 71.7733 166.949 70.536C165.626 69.2987 164.901 67.8267 164.773 66.12C162.255 66.12 159.695 67.2933 157.093 69.64C154.533 71.9867 152.463 74.8453 150.885 78.216C149.306 81.5867 148.517 84.7653 148.517 87.752C148.517 88.904 148.858 89.992 149.541 91.016C150.266 91.9973 151.29 92.488 152.613 92.488C156.453 92.488 160.314 90.3547 164.197 86.088C168.122 81.8213 170.575 77.2987 171.557 72.52ZM182.885 66.76C183.013 66.76 183.077 66.8453 183.077 67.016C183.077 67.1867 182.927 67.3573 182.629 67.528C182.373 67.6987 181.839 68.0827 181.029 68.68C180.261 69.2347 179.621 69.6827 179.109 70.024C178.639 70.3227 178.021 70.6853 177.253 71.112C175.759 71.9227 174.287 72.392 172.837 72.52C171.77 77.9813 169.039 82.952 164.645 87.432C160.293 91.912 155.727 94.152 150.949 94.152C146.17 94.152 143.781 91.976 143.781 87.624C143.781 84.1253 144.805 80.584 146.853 77C148.943 73.416 151.631 70.472 154.917 68.168C158.202 65.864 161.487 64.712 164.773 64.712C164.858 63.6453 165.178 62.6 165.733 61.576C166.287 60.5093 167.077 59.976 168.101 59.976C169.679 59.976 170.917 60.7653 171.812 62.344C172.751 63.9227 173.221 65.9493 173.221 68.424C173.221 69.1067 173.135 70.1307 172.965 71.496C174.885 71.496 177.957 70.0453 182.181 67.144C182.565 66.888 182.799 66.76 182.885 66.76ZM182.573 67.784C182.402 67.8693 182.232 67.912 182.061 67.912C181.89 67.912 181.805 67.8267 181.805 67.656C181.805 67.4853 182.765 66.76 184.685 65.48C186.605 64.2 188.269 63.56 189.677 63.56C191.128 63.56 192.13 63.7947 192.685 64.264C193.282 64.6907 193.581 65.5867 193.581 66.952C193.581 68.3173 192.642 70.5573 190.765 73.672C191.021 73.4587 191.512 73.0107 192.237 72.328C192.962 71.6027 193.517 71.0693 193.901 70.728C194.285 70.3867 194.818 69.9173 195.501 69.32C196.226 68.7227 196.824 68.2533 197.293 67.912C197.805 67.5707 198.381 67.2293 199.021 66.888C200.258 66.2053 201.432 65.864 202.541 65.864C203.906 65.864 204.589 66.9733 204.589 69.192C204.589 70.6427 204.162 72.2213 203.309 73.928L202.925 74.824C203.565 74.184 204.717 73.2027 206.381 71.88C208.002 70.6 209.453 69.5547 210.733 68.744C214.104 66.568 216.877 65.48 219.053 65.48C221.272 65.48 222.381 66.4613 222.381 68.424C222.381 69.448 221.634 71.1973 220.141 73.672C218.69 76.104 217.09 78.664 215.341 81.352C213.592 83.9973 211.97 87.2613 210.477 91.144C209.026 94.984 208.301 98.5893 208.301 101.96C208.301 105.373 209.133 108.381 210.797 110.984C212.504 113.587 214.936 114.888 218.093 114.888C221.293 114.888 225.005 113.373 229.229 110.344C233.453 107.357 236.632 104.307 238.765 101.192C238.936 100.936 239.106 100.808 239.277 100.808C239.448 100.808 239.533 100.872 239.533 101C239.533 101.128 239.49 101.277 239.405 101.448C236.418 105.501 232.792 108.979 228.525 111.88C224.301 114.824 220.354 116.296 216.685 116.296C213.016 116.296 209.986 115.037 207.597 112.52C205.25 110.003 204.077 106.845 204.077 103.048C204.077 99.2933 204.717 95.5173 205.997 91.72C207.32 87.88 208.749 84.7013 210.285 82.184C211.821 79.6667 213.229 77.2773 214.509 75.016C215.832 72.712 216.493 71.112 216.493 70.216C216.493 69.2773 215.981 68.808 214.957 68.808C213.336 68.808 211.224 69.7467 208.621 71.624C206.061 73.5013 203.928 75.464 202.221 77.512C200.514 79.56 198.744 80.584 196.909 80.584C196.653 80.584 196.525 80.4133 196.525 80.072C196.525 79.7307 196.589 79.4747 196.717 79.304C196.845 79.0907 197.037 78.9413 197.293 78.856C197.549 78.728 197.72 78.6213 197.805 78.536C199.512 74.8667 200.365 72.4133 200.365 71.176C200.365 69.9387 200.024 69.32 199.341 69.32C197.592 69.32 194.605 71.5813 190.381 76.104C189.314 77.256 187.544 79.9867 185.069 84.296C182.594 88.5627 181.25 90.824 181.037 91.08C180.866 91.336 180.632 91.5493 180.333 91.72C180.077 91.8907 179.714 92.0827 179.245 92.296C178.818 92.4667 178.2 92.7653 177.389 93.192C176.578 93.6613 176.024 93.896 175.725 93.896C175.426 93.896 175.277 93.7253 175.277 93.384C175.277 93.0427 175.49 92.6373 175.917 92.168C176.386 91.656 177.112 90.568 178.093 88.904C179.117 87.24 180.397 85.0213 181.933 82.248C183.512 79.4747 184.45 77.8533 184.749 77.384C185.048 76.872 185.368 76.3173 185.709 75.72C186.05 75.08 186.306 74.6107 186.477 74.312C186.648 74.0133 186.861 73.608 187.117 73.096C187.416 72.584 187.629 72.2 187.757 71.944C187.928 71.6453 188.12 71.304 188.333 70.92C188.546 70.4933 188.696 70.152 188.781 69.896C188.909 69.64 189.016 69.3627 189.101 69.064C189.272 68.5093 189.357 67.9973 189.357 67.528C189.357 66.0773 188.717 65.352 187.437 65.352C186.541 65.352 184.92 66.1627 182.573 67.784ZM225.602 84.808L223.042 86.856C222.957 86.856 222.914 86.7707 222.914 86.6C222.914 86.4293 223.063 86.1947 223.362 85.896C223.661 85.5973 224.493 84.936 225.858 83.912C226.839 80.84 228.311 77.9387 230.274 75.208C232.237 72.4773 234.242 70.28 236.29 68.616C238.338 66.9093 240.279 65.5867 242.114 64.648C243.949 63.6667 245.399 63.176 246.466 63.176C248.685 63.176 249.794 64.0293 249.794 65.736C249.794 66.376 249.559 67.0373 249.09 67.72C248.621 68.36 247.746 69.1707 246.466 70.152C245.229 71.1333 244.034 72.0293 242.882 72.84C241.773 73.608 239.981 74.824 237.506 76.488C235.074 78.152 232.983 79.6027 231.234 80.84C230.466 83.016 230.082 85.0427 230.082 86.92C230.082 88.7547 230.573 90.12 231.554 91.016C232.578 91.912 234.263 92.36 236.61 92.36C238.999 92.36 241.73 91.528 244.802 89.864C247.917 88.2 250.861 86.1733 253.634 83.784C256.407 81.352 258.455 79.1333 259.778 77.128C259.949 76.872 260.119 76.744 260.29 76.744C260.461 76.744 260.546 76.808 260.546 76.936C260.546 77.064 260.503 77.2133 260.418 77.384C255.682 83.528 249.965 88.3067 243.266 91.72C240.023 93.256 236.866 94.024 233.794 94.024C227.991 94.024 225.09 92.0187 225.09 88.008C225.09 87.4107 225.261 86.344 225.602 84.808ZM231.746 79.688C236.781 76.0613 240.365 73.2667 242.498 71.304C244.631 69.2987 245.698 67.7413 245.698 66.632C245.698 65.5227 245.229 64.968 244.29 64.968C242.199 64.968 239.959 66.4827 237.57 69.512C235.181 72.4987 233.239 75.8907 231.746 79.688Z" fill="white"/>
</g>
<defs>
<clipPath id="clip0_1_2">
<rect width="262" height="119" fill="white"/>
</clipPath>
</defs>
</svg>
