<svg id="icon-product-original" xmlns="http://www.w3.org/2000/svg" xmlns:xlink="http://www.w3.org/1999/xlink" width="25" height="25" viewBox="0 0 25 25">
  <defs>
    <clipPath id="clip-path">
      <rect id="Rectangle_190" data-name="Rectangle 190" width="17.83" height="25" fill="none"/>
    </clipPath>
  </defs>
  <g id="Group_200" data-name="Group 200" transform="translate(4)">
    <g id="Group_199" data-name="Group 199" clip-path="url(#clip-path)">
      <path id="Path_160" data-name="Path 160" d="M12.9,6.524a.8.8,0,0,1,0,1.131l0,0L8.1,12.464a.8.8,0,0,1-1.132,0v0l-2.406-2.4A.8.8,0,0,1,5.694,8.928L7.53,10.766l4.24-4.242a.8.8,0,0,1,1.131,0l0,0" fill="#353535"/>
      <path id="Path_161" data-name="Path 161" d="M6.8,15.627l-2.36-.35-1.07-2.1-1.7-1.647.389-2.313-.39-2.312,1.7-1.65,1.067-2.1L6.8,2.81,8.915,1.73l2.118,1.078,2.358.35,1.069,2.1,1.7,1.65-.388,2.312.388,2.313-1.7,1.647-1.069,2.1-2.359.35L8.915,16.7ZM8.915,0,6.307,1.327l-2.9.435L2.089,4.341,0,6.369l.478,2.85L0,12.066,2.089,14.1,3.4,16.674l2.9.435,2.608,1.328,2.608-1.328,2.9-.435L15.741,14.1l2.089-2.029-.478-2.85.478-2.85L15.741,4.341,14.426,1.762l-2.9-.435Z" fill="#353535"/>
      <path id="Path_162" data-name="Path 162" d="M11.946,18.6l-3.03,1.683L5.884,18.6,2.8,18.1V25l6.114-1.641L15.03,25V18.1Z" fill="#353535"/>
    </g>
  </g>
  <rect id="Rectangle_191" data-name="Rectangle 191" width="25" height="25" fill="none"/>
</svg>
