<svg id="icon-return" xmlns="http://www.w3.org/2000/svg" xmlns:xlink="http://www.w3.org/1999/xlink" width="25" height="25" viewBox="0 0 25 25">
  <defs>
    <clipPath id="clip-path">
      <rect id="Rectangle_196" data-name="Rectangle 196" width="25" height="18.824" transform="translate(0.035 0)" fill="none"/>
    </clipPath>
  </defs>
  <rect id="Rectangle_193" data-name="Rectangle 193" width="25" height="25" transform="translate(0)" fill="none"/>
  <g id="Group_209" data-name="Group 209" transform="translate(-0.035 3.088)">
    <g id="Group_208" data-name="Group 208" clip-path="url(#clip-path)">
      <path id="Path_168" data-name="Path 168" d="M0,2.347A2.351,2.351,0,0,1,2.347,0H16.43a2.351,2.351,0,0,1,2.347,2.347V4.694h1.595a2.344,2.344,0,0,1,1.83.882L24.521,8.47a2.353,2.353,0,0,1,.514,1.468V13.3a2.349,2.349,0,0,1-2.347,2.347h-.782a3.129,3.129,0,0,1-6.259,0H7.824a3.13,3.13,0,0,1-6.259.015v-.147A2.35,2.35,0,0,1,0,13.3ZM2.024,14.014a3.127,3.127,0,0,1,5.381.069h8.661a3.138,3.138,0,0,1,1.146-1.145V2.347a.782.782,0,0,0-.782-.782H2.347a.782.782,0,0,0-.782.782V13.3a.784.784,0,0,0,.459.714m16.75-1.5a3.129,3.129,0,0,1,2.71,1.564h1.2a.781.781,0,0,0,.786-.776V9.937a.774.774,0,0,0-.171-.486L20.983,6.556a.775.775,0,0,0-.61-.294h-1.6Z" fill="#353535"/>
      <path id="Path_169" data-name="Path 169" d="M7.5,8.488a.5.5,0,1,0,.711-.712l-1.6-1.6h6.763a.5.5,0,1,0,0-1.006H6.614l1.6-1.6A.5.5,0,0,0,7.5,2.86L5.041,5.323a.5.5,0,0,0,0,.707Z" fill="#353535"/>
      <path id="Path_170" data-name="Path 170" d="M11.278,7.162a.5.5,0,0,0-.712.712l1.6,1.6H5.4a.5.5,0,0,0,0,1h6.764l-1.6,1.6a.5.5,0,0,0,.709.712l2.454-2.455a.5.5,0,0,0,0-.707l0,0Z" fill="#353535"/>
    </g>
  </g>
</svg>
